<?xml version="1.0" encoding="UTF-8"?>
<svg id="Camada_1" data-name="Camada 1" xmlns="http://www.w3.org/2000/svg" viewBox="0 0 589.12 589.05">
  <defs>
    <style>
      .cls-1 {
        fill: #aa3b22;
        stroke-width: 0px;
      }
    </style>
  </defs>
  <path id="PARENTESES" class="cls-1"
    d="M294.59,186.55c-19.59,0-37.97,5.22-53.82,14.35v39.31c13.81-13.69,32.84-22.14,53.82-22.14s40.01,8.45,53.82,22.14v-39.31c-15.84-9.13-34.22-14.35-53.82-14.35ZM388.23,240.7h-39.32c13.69,13.81,22.16,32.84,22.16,53.83s-8.47,40.01-22.16,53.82h39.32c9.13-15.84,14.35-34.22,14.35-53.82s-5.22-37.99-14.35-53.83ZM240.27,240.7h-39.31c-9.13,15.84-14.35,34.22-14.35,53.83s5.22,37.97,14.35,53.82h39.31c-13.69-13.81-22.16-32.82-22.16-53.82s8.47-40.02,22.16-53.83ZM294.59,370.99c-20.98,0-40.01-8.45-53.82-22.14v39.31c15.84,9.13,34.22,14.35,53.82,14.35s37.97-5.22,53.82-14.35v-39.31c-13.81,13.69-32.84,22.14-53.82,22.14Z" />
  <g id="COLCHETES">
    <polygon class="cls-1"
      points="110.02 171.8 110.02 417.26 110.02 422.65 115.41 422.65 161.07 422.65 166.47 422.65 166.47 417.26 166.47 399.14 166.47 390.64 161.07 390.64 142.03 390.64 142.03 198.41 161.07 198.41 166.47 198.41 166.47 189.92 166.47 171.8 166.47 166.41 161.07 166.41 115.41 166.41 110.02 166.41 110.02 171.8" />
    <polygon class="cls-1"
      points="479.16 417.26 479.16 171.8 479.16 166.41 473.77 166.41 428.11 166.41 422.71 166.41 422.71 171.8 422.71 189.91 422.71 198.41 428.11 198.41 447.15 198.41 447.15 390.64 428.11 390.64 422.71 390.64 422.71 399.14 422.71 417.26 422.71 422.65 428.11 422.65 473.77 422.65 479.16 422.65 479.16 417.26" />
    <polygon class="cls-1"
      points="417.32 109.96 171.86 109.96 166.47 109.96 166.47 115.35 166.47 161.01 166.47 166.41 171.86 166.41 189.98 166.41 198.48 166.41 198.48 161.01 198.48 141.97 390.7 141.97 390.7 161.01 390.7 166.41 399.2 166.41 417.32 166.41 422.71 166.41 422.71 161.01 422.71 115.35 422.71 109.96 417.32 109.96" />
    <polygon class="cls-1"
      points="171.86 479.1 417.32 479.1 422.71 479.1 422.71 473.7 422.71 428.04 422.71 422.65 417.32 422.65 399.2 422.65 390.7 422.65 390.7 428.04 390.7 447.09 198.48 447.09 198.48 428.04 198.48 422.65 189.98 422.65 171.86 422.65 166.47 422.65 166.47 428.04 166.47 473.7 166.47 479.1 171.86 479.1" />
  </g>
  <g id="CHAVES">
    <path class="cls-1"
      d="M483.78,33.2c-8.76-8.7-19.71-13.11-32.55-13.11h-118.58c-2.83,0-5.66-.86-8.41-2.54l-20.48-14.66c-2.64-1.89-5.78-2.89-9.07-2.89s-6.31.94-9.1,2.79l-.08.05-.08.05-20.44,14.63c-2.77,1.7-5.62,2.56-8.45,2.56h-118.95c-12.6,0-23.43,4.41-32.19,13.11-8.78,8.71-13.24,19.7-13.24,32.68v26.22h31.84v-25.69c0-3.97,1.37-7.27,4.2-10.1,2.84-2.83,6.15-4.21,10.1-4.21h118.23c9.88,0,18.83-2.89,26.58-8.58l11.47-8.05,11.47,8.06c7.87,5.69,16.81,8.57,26.58,8.57h118.05c4.06,0,7.39,1.37,10.16,4.19,2.79,2.84,4.15,6.15,4.15,10.13v25.69h32.01v-26.22c0-12.98-4.45-23.98-13.24-32.69Z" />
    <path class="cls-1"
      d="M555.92,483.71c8.7-8.76,13.11-19.71,13.11-32.55v-118.58c0-2.83.86-5.66,2.54-8.41l14.66-20.48c1.89-2.64,2.89-5.78,2.89-9.07s-.94-6.31-2.79-9.1l-.05-.08-.05-.08-14.63-20.44c-1.7-2.77-2.56-5.62-2.56-8.45v-118.95c0-12.6-4.41-23.43-13.11-32.19-8.71-8.78-19.7-13.24-32.68-13.24h-26.22v31.84h25.69c3.97,0,7.27,1.37,10.1,4.2,2.83,2.84,4.21,6.15,4.21,10.1v118.23c0,9.88,2.89,18.83,8.58,26.58l8.05,11.47-8.06,11.47c-5.69,7.87-8.57,16.81-8.57,26.58v118.05c0,4.06-1.37,7.39-4.19,10.16-2.84,2.79-6.15,4.15-10.13,4.15h-25.69v32.01h26.22c12.98,0,23.98-4.45,32.69-13.24Z" />
    <path class="cls-1"
      d="M33.2,483.71c-8.7-8.76-13.11-19.71-13.11-32.55v-118.58c0-2.83-.86-5.66-2.54-8.41l-14.66-20.48C1,301.04,0,297.91,0,294.62c0-3.25.94-6.31,2.79-9.1l.05-.08.05-.08,14.63-20.44c1.7-2.77,2.56-5.62,2.56-8.45v-118.95c0-12.6,4.41-23.43,13.11-32.19,8.71-8.78,19.7-13.24,32.68-13.24h20.83s5.39,0,5.39,0v5.39s0,21.05,0,21.05v5.39h-5.39s-20.3,0-20.3,0c-3.97,0-7.27,1.37-10.1,4.2-2.83,2.84-4.21,6.15-4.21,10.1v118.23c0,9.88-2.89,18.83-8.58,26.58l-8.05,11.47,8.06,11.47c5.69,7.87,8.57,16.81,8.57,26.58v118.05c0,4.06,1.37,7.39,4.19,10.16,2.84,2.79,6.15,4.15,10.13,4.15h20.3s5.39,0,5.39,0v5.39s0,21.22,0,21.22v5.39h-5.39s-20.83,0-20.83,0c-12.98,0-23.98-4.45-32.69-13.24Z" />
    <path class="cls-1"
      d="M483.78,555.86c-8.76,8.7-19.71,13.11-32.55,13.11h-118.58c-2.83,0-5.66.86-8.41,2.54l-20.48,14.66c-2.64,1.89-5.78,2.89-9.07,2.89s-6.31-.94-9.1-2.79l-.08-.05-.08-.05-20.44-14.63c-2.77-1.7-5.62-2.56-8.45-2.56h-118.95c-12.6,0-23.43-4.41-32.19-13.11-8.78-8.71-13.24-19.7-13.24-32.68v-26.22h31.84v25.69c0,3.97,1.37,7.27,4.2,10.1,2.84,2.83,6.15,4.21,10.1,4.21h118.23c9.88,0,18.83,2.89,26.58,8.58l11.47,8.05,11.47-8.06c7.87-5.69,16.81-8.57,26.58-8.57h118.05c4.06,0,7.39-1.37,10.16-4.19,2.79-2.84,4.15-6.15,4.15-10.13v-25.69h32.01v26.22c0,12.98-4.45,23.98-13.24,32.69Z" />
  </g>
</svg>